<?xml version="1.0" encoding="utf-8"?>
<!-- Generator: Adobe Illustrator 16.0.0, SVG Export Plug-In . SVG Version: 6.00 Build 0)  -->
<!DOCTYPE svg PUBLIC "-//W3C//DTD SVG 1.1//EN" "http://www.w3.org/Graphics/SVG/1.1/DTD/svg11.dtd">
<svg version="1.1" id="Layer_1" xmlns="http://www.w3.org/2000/svg" xmlns:xlink="http://www.w3.org/1999/xlink" x="0px" y="0px"
	 width="348.662px" height="79.371px" viewBox="-1.331 0 348.662 79.371" enable-background="new -1.331 0 348.662 79.371"
	 xml:space="preserve">
<rect x="-1.331" fill="#9FBC2E" width="348.662" height="79.371"/>
<g>
	<path fill="#FFFFFF" d="M131.207,39.731h-7.45v5.954h-0.642V33.208h0.642v5.918h7.45v-5.918h0.642v12.477h-0.642V39.731z"/>
	<path fill="#FFFFFF" d="M141.043,45.115l0.036,0.57c0,0-1.996,0.16-3.297,0.16c-2.656-0.018-3.351-1.711-3.351-4.615
		c0-3.529,1.568-4.617,3.6-4.617c2.192,0,3.386,1.194,3.386,4.277v0.588h-6.327c0,2.459,0.642,3.797,2.709,3.797
		C139.047,45.275,141.043,45.115,141.043,45.115z M140.758,40.91c0-2.727-0.873-3.725-2.727-3.725c-1.782,0-2.94,1.017-2.94,3.725
		H140.758z"/>
	<path fill="#FFFFFF" d="M149.667,44.527c0.054,0.518,0.713,0.695,1.337,0.748l-0.036,0.553c-0.766,0-1.444-0.195-1.835-0.748
		c0,0-1.818,0.768-3.601,0.768c-1.461,0-2.334-0.873-2.334-2.604c0-1.516,0.713-2.389,2.459-2.564l3.386-0.354v-0.93
		c0-1.551-0.677-2.176-1.978-2.176c-1.301,0-3.369,0.303-3.369,0.303l-0.053-0.588c0,0,1.996-0.318,3.422-0.318
		c1.8,0,2.602,0.943,2.602,2.779V44.527L149.667,44.527z M145.729,41.23c-1.39,0.143-1.871,0.783-1.871,2.014
		c0,1.301,0.605,2.031,1.693,2.031c1.675,0,3.493-0.73,3.493-0.73v-3.65L145.729,41.23z"/>
	<path fill="#FFFFFF" d="M158.934,45.685h-0.624v-0.748c0,0-1.461,0.908-3.083,0.908c-1.105,0-3.03-0.143-3.03-4.473
		c0-3.065,0.837-4.758,3.76-4.758c0.838,0,1.907,0.143,2.353,0.213v-4.152h0.624V45.685z M158.31,44.349v-6.952
		c-0.463-0.069-1.657-0.213-2.353-0.213c-2.53,0-3.101,1.531-3.101,4.188c0,3.6,1.372,3.9,2.37,3.9
		C156.759,45.275,158.31,44.349,158.31,44.349z"/>
	<path fill="#FFFFFF" d="M167.985,45.115l0.035,0.57c0,0-1.996,0.16-3.297,0.16c-2.656-0.018-3.351-1.711-3.351-4.615
		c0-3.529,1.567-4.617,3.601-4.617c2.191,0,3.385,1.194,3.385,4.277v0.588h-6.326c0,2.459,0.642,3.797,2.709,3.797
		C165.989,45.275,167.985,45.115,167.985,45.115z M167.7,40.91c0-2.727-0.873-3.725-2.727-3.725c-1.783,0-2.94,1.017-2.94,3.725
		H167.7z"/>
	<path fill="#FFFFFF" d="M170.692,36.774h0.625v1.39c0,0,1.567-1.192,3.528-1.567v0.643c-1.747,0.355-3.528,1.516-3.528,1.516v6.93
		h-0.625V36.774z"/>
	<path fill="#FFFFFF" d="M180.689,33.208h0.642v12.477h-0.642V33.208z"/>
	<path fill="#FFFFFF" d="M184.378,45.685v-8.911h0.624v0.714c0,0,1.391-0.873,2.923-0.873c1.319,0,1.96,0.284,2.388,0.961
		c0,0,1.533-0.961,3.279-0.961c2.424,0,2.924,0.979,2.924,4.439v4.631h-0.625v-4.598c0-3.03-0.32-3.903-2.299-3.903
		c-1.729,0-3.064,0.873-3.064,0.873c0.25,0.676,0.32,1.656,0.32,2.995v4.633h-0.623v-4.598c0-3.03-0.322-3.903-2.3-3.903
		c-1.586,0-2.923,0.892-2.923,0.892v7.609H184.378z"/>
	<path fill="#FFFFFF" d="M205.154,44.527c0.055,0.518,0.714,0.695,1.338,0.748l-0.036,0.553c-0.767,0-1.444-0.195-1.835-0.748
		c0,0-1.818,0.768-3.602,0.768c-1.461,0-2.334-0.873-2.334-2.604c0-1.516,0.713-2.389,2.459-2.564l3.387-0.354v-0.93
		c0-1.551-0.678-2.176-1.979-2.176c-1.301,0-3.368,0.303-3.368,0.303l-0.054-0.588c0,0,1.996-0.318,3.422-0.318
		c1.802,0,2.603,0.943,2.603,2.779V44.527L205.154,44.527z M201.217,41.23c-1.39,0.143-1.871,0.783-1.871,2.014
		c0,1.301,0.605,2.031,1.693,2.031c1.675,0,3.493-0.73,3.493-0.73v-3.65L201.217,41.23z"/>
	<path fill="#FFFFFF" d="M207.686,47.111c0-1.176,0.551-1.586,1.517-2.281c-0.285-0.178-0.396-0.604-0.396-1.158
		c0-0.268,0.535-1.391,0.535-1.391c-0.82-0.266-1.533-0.998-1.533-2.708c0-2.121,1.144-2.977,3.049-2.977
		c0.961,0,1.891,0.231,1.891,0.231l2.495-0.054v0.623h-1.927c0.445,0.41,0.713,0.944,0.713,2.175c0,2.193-1.051,2.923-3.242,2.923
		c-0.145,0-0.749-0.035-0.962-0.072c0,0-0.41,1.018-0.41,1.248c0,0.873,0.104,0.965,2.438,0.965c2.211,0,3.154,0.354,3.154,2.564
		c0,1.924-1.141,2.744-3.796,2.744C208.255,49.945,207.686,49.214,207.686,47.111z M209.663,45.15
		c-1.033,0.713-1.336,1.088-1.336,1.943c0,1.693,0.446,2.281,2.905,2.281c2.209,0,3.119-0.645,3.119-2.176
		c0-1.801-0.73-1.996-2.531-1.996C211.089,45.205,209.663,45.15,209.663,45.15z M213.37,39.572c0-1.781-0.659-2.406-2.53-2.406
		c-1.676,0-2.389,0.625-2.389,2.406c0,1.783,0.713,2.353,2.389,2.353C212.711,41.923,213.37,41.355,213.37,39.572z"/>
	<path fill="#FFFFFF" d="M223.225,45.115l0.035,0.57c0,0-1.996,0.16-3.297,0.16c-2.654-0.018-3.352-1.711-3.352-4.615
		c0-3.529,1.568-4.617,3.601-4.617c2.192,0,3.386,1.194,3.386,4.277v0.588h-6.326c0,2.459,0.644,3.797,2.709,3.797
		C221.229,45.275,223.225,45.115,223.225,45.115z M222.939,40.91c0-2.727-0.875-3.725-2.729-3.725c-1.78,0-2.938,1.017-2.938,3.725
		H222.939z"/>
</g>
</svg>
