<?xml version="1.0" encoding="utf-8"?>
<!-- Generator: Adobe Illustrator 16.0.0, SVG Export Plug-In . SVG Version: 6.00 Build 0)  -->
<!DOCTYPE svg PUBLIC "-//W3C//DTD SVG 1.1//EN" "http://www.w3.org/Graphics/SVG/1.1/DTD/svg11.dtd">
<svg version="1.1" id="Layer_1" xmlns="http://www.w3.org/2000/svg" xmlns:xlink="http://www.w3.org/1999/xlink" x="0px" y="0px"
	 width="348.662px" height="79.371px" viewBox="-1.331 0 348.662 79.371" enable-background="new -1.331 0 348.662 79.371"
	 xml:space="preserve">
<rect x="-1.331" y="0" fill="#F4BB3A" width="348.662" height="79.37"/>
<g>
	<path fill="#FFFFFF" d="M131.207,39.732h-7.45v5.953h-0.642V33.208h0.642v5.918h7.45v-5.918h0.642v12.477h-0.642V39.732z"/>
	<path fill="#FFFFFF" d="M141.042,45.116l0.036,0.569c0,0-1.996,0.16-3.297,0.16c-2.656-0.018-3.351-1.711-3.351-4.615
		c0-3.528,1.568-4.616,3.6-4.616c2.192,0,3.386,1.194,3.386,4.276v0.588h-6.327c0,2.459,0.642,3.797,2.709,3.797
		C139.046,45.275,141.042,45.116,141.042,45.116z M140.757,40.911c0-2.728-0.873-3.726-2.727-3.726c-1.782,0-2.94,1.017-2.94,3.726
		H140.757z"/>
	<path fill="#FFFFFF" d="M149.667,44.527c0.054,0.519,0.713,0.695,1.337,0.748l-0.036,0.554c-0.766,0-1.444-0.195-1.835-0.748
		c0,0-1.818,0.767-3.601,0.767c-1.461,0-2.334-0.873-2.334-2.603c0-1.517,0.713-2.39,2.459-2.565l3.386-0.354v-0.93
		c0-1.551-0.677-2.176-1.978-2.176c-1.301,0-3.369,0.303-3.369,0.303l-0.053-0.588c0,0,1.996-0.318,3.422-0.318
		c1.8,0,2.602,0.943,2.602,2.779V44.527L149.667,44.527z M145.729,41.23c-1.39,0.144-1.871,0.783-1.871,2.015
		c0,1.301,0.605,2.03,1.693,2.03c1.675,0,3.493-0.729,3.493-0.729v-3.651L145.729,41.23z"/>
	<path fill="#FFFFFF" d="M158.934,45.685h-0.624v-0.748c0,0-1.461,0.908-3.083,0.908c-1.105,0-3.03-0.143-3.03-4.473
		c0-3.064,0.837-4.758,3.76-4.758c0.838,0,1.907,0.143,2.353,0.213v-4.152h0.624V45.685z M158.31,44.349v-6.951
		c-0.463-0.069-1.657-0.213-2.353-0.213c-2.53,0-3.101,1.531-3.101,4.188c0,3.6,1.372,3.9,2.37,3.9
		C156.758,45.275,158.31,44.349,158.31,44.349z"/>
	<path fill="#FFFFFF" d="M167.984,45.116l0.036,0.569c0,0-1.996,0.16-3.297,0.16c-2.656-0.018-3.351-1.711-3.351-4.615
		c0-3.528,1.568-4.616,3.6-4.616c2.192,0,3.386,1.194,3.386,4.276v0.588h-6.327c0,2.459,0.642,3.797,2.709,3.797
		C165.988,45.275,167.984,45.116,167.984,45.116z M167.7,40.911c0-2.728-0.873-3.726-2.727-3.726c-1.782,0-2.94,1.017-2.94,3.726
		H167.7z"/>
	<path fill="#FFFFFF" d="M170.692,36.775h0.624v1.39c0,0,1.568-1.192,3.529-1.567v0.643c-1.747,0.355-3.529,1.516-3.529,1.516v6.93
		h-0.624V36.775z"/>
	<path fill="#FFFFFF" d="M180.689,33.208h0.641v12.477h-0.641V33.208z"/>
	<path fill="#FFFFFF" d="M184.377,45.685v-8.91h0.625v0.714c0,0,1.391-0.873,2.922-0.873c1.32,0,1.961,0.284,2.389,0.961
		c0,0,1.533-0.961,3.279-0.961c2.424,0,2.924,0.979,2.924,4.438v4.631h-0.625v-4.598c0-3.029-0.32-3.902-2.299-3.902
		c-1.729,0-3.064,0.873-3.064,0.873c0.25,0.676,0.32,1.656,0.32,2.994v4.633h-0.623v-4.598c0-3.029-0.322-3.902-2.301-3.902
		c-1.586,0-2.922,0.892-2.922,0.892v7.608H184.377z"/>
	<path fill="#FFFFFF" d="M205.154,44.527c0.055,0.519,0.713,0.695,1.338,0.748l-0.037,0.554c-0.766,0-1.443-0.195-1.834-0.748
		c0,0-1.818,0.767-3.602,0.767c-1.461,0-2.334-0.873-2.334-2.603c0-1.517,0.713-2.39,2.459-2.565l3.387-0.354v-0.93
		c0-1.551-0.678-2.176-1.98-2.176c-1.301,0-3.367,0.303-3.367,0.303l-0.055-0.588c0,0,1.996-0.318,3.422-0.318
		c1.803,0,2.604,0.943,2.604,2.779V44.527L205.154,44.527z M201.217,41.23c-1.391,0.144-1.871,0.783-1.871,2.015
		c0,1.301,0.605,2.03,1.693,2.03c1.674,0,3.492-0.729,3.492-0.729v-3.651L201.217,41.23z"/>
	<path fill="#FFFFFF" d="M207.686,47.112c0-1.177,0.551-1.587,1.516-2.281c-0.285-0.179-0.395-0.604-0.395-1.158
		c0-0.268,0.535-1.391,0.535-1.391c-0.82-0.267-1.533-0.998-1.533-2.708c0-2.121,1.143-2.977,3.049-2.977
		c0.961,0,1.891,0.231,1.891,0.231l2.494-0.054v0.623h-1.926c0.445,0.41,0.713,0.944,0.713,2.175c0,2.192-1.051,2.924-3.242,2.924
		c-0.145,0-0.75-0.035-0.963-0.072c0,0-0.41,1.017-0.41,1.248c0,0.873,0.105,0.964,2.439,0.964c2.211,0,3.154,0.354,3.154,2.565
		c0,1.924-1.141,2.744-3.797,2.744C208.254,49.946,207.686,49.214,207.686,47.112z M209.662,45.15
		c-1.033,0.714-1.336,1.089-1.336,1.943c0,1.693,0.447,2.281,2.906,2.281c2.209,0,3.119-0.645,3.119-2.176
		c0-1.801-0.73-1.996-2.531-1.996C211.088,45.206,209.662,45.15,209.662,45.15z M213.369,39.573c0-1.781-0.658-2.406-2.529-2.406
		c-1.676,0-2.389,0.625-2.389,2.406c0,1.782,0.713,2.353,2.389,2.353C212.711,41.923,213.369,41.355,213.369,39.573z"/>
	<path fill="#FFFFFF" d="M223.225,45.116l0.035,0.569c0,0-1.996,0.16-3.297,0.16c-2.654-0.018-3.352-1.711-3.352-4.615
		c0-3.528,1.568-4.616,3.6-4.616c2.193,0,3.387,1.194,3.387,4.276v0.588h-6.326c0,2.459,0.643,3.797,2.709,3.797
		C221.229,45.275,223.225,45.116,223.225,45.116z M222.939,40.911c0-2.728-0.875-3.726-2.73-3.726c-1.779,0-2.938,1.017-2.938,3.726
		H222.939z"/>
</g>
</svg>
